<?xml version="1.0" encoding="utf-8"?>
<!-- Generator: Adobe Illustrator 24.2.0, SVG Export Plug-In . SVG Version: 6.00 Build 0)  -->
<!DOCTYPE svg PUBLIC "-//W3C//DTD SVG 1.1//EN" "http://www.w3.org/Graphics/SVG/1.1/DTD/svg11.dtd" [
	<!ENTITY ns_extend "http://ns.adobe.com/Extensibility/1.0/">
	<!ENTITY ns_ai "http://ns.adobe.com/AdobeIllustrator/10.0/">
	<!ENTITY ns_graphs "http://ns.adobe.com/Graphs/1.0/">
	<!ENTITY ns_vars "http://ns.adobe.com/Variables/1.0/">
	<!ENTITY ns_imrep "http://ns.adobe.com/ImageReplacement/1.0/">
	<!ENTITY ns_sfw "http://ns.adobe.com/SaveForWeb/1.0/">
	<!ENTITY ns_custom "http://ns.adobe.com/GenericCustomNamespace/1.0/">
	<!ENTITY ns_adobe_xpath "http://ns.adobe.com/XPath/1.0/">
]>
<svg version="1.1" xmlns:x="&ns_extend;" xmlns:i="&ns_ai;" xmlns:graph="&ns_graphs;"
	 xmlns="http://www.w3.org/2000/svg" xmlns:xlink="http://www.w3.org/1999/xlink" x="0px" y="0px" width="750px" height="750px"
	 viewBox="0 0 750 750" enable-background="new 0 0 750 750" xml:space="preserve">
<metadata>
	<sfw  xmlns="&ns_sfw;">
		<slices></slices>
		<sliceSourceBounds  bottomLeftOrigin="true" height="10184.436" width="8189.942" x="-5220" y="-1726"></sliceSourceBounds>
	</sfw>
</metadata>
<g id="FILL-BACKGROUND">
	<rect fill="#FFFFFF" width="750" height="750"/>
</g>
<g id="N-TEXT">
</g>
<g id="AG-DIAGRAM">
	<g id="POLYLINE_816_">
		<g>
			<g>
				
					<line fill="none" stroke="#FF6B6B" stroke-width="3.25" stroke-linecap="round" stroke-linejoin="round" x1="109.331" y1="576.304" x2="111.331" y2="576.304"/>
				
					<line fill="none" stroke="#FF6B6B" stroke-width="3.25" stroke-linecap="round" stroke-linejoin="round" stroke-dasharray="4.0315,7.0551" x1="118.386" y1="576.304" x2="602.669" y2="576.304"/>
				
					<line fill="none" stroke="#FF6B6B" stroke-width="3.25" stroke-linecap="round" stroke-linejoin="round" x1="606.196" y1="576.304" x2="608.196" y2="576.304"/>
			</g>
		</g>
	</g>
</g>
<g id="AG-PEOPLE">
	<g id="POLYLINE_1374_">
		
			<path fill="none" stroke="#FF6B6B" stroke-width="2.75" stroke-linecap="round" stroke-linejoin="round" stroke-miterlimit="10" d="
			M430.216,404.366c-7.153-5.203-16.243-9.529-23.544-14.516c-3.116-2.091-6.179-4.437-8.988-6.924
			c-5.53-4.804-11.125-11.103-15.996-16.617c-0.563-0.608-1.206-1.361-1.895-1.805c-0.063-0.038-0.084-0.051-0.084-0.051
			c-0.062-0.035-0.083-0.046-0.083-0.046c-0.062-0.032-0.082-0.042-0.082-0.042c-0.062-0.028-0.082-0.037-0.082-0.037
			c-0.061-0.025-0.082-0.033-0.082-0.033c-0.061-0.022-0.082-0.028-0.082-0.028c-0.061-0.018-0.082-0.024-0.082-0.024
			c-0.061-0.015-0.082-0.019-0.082-0.019c-0.062-0.011-0.082-0.015-0.082-0.015c-0.062-0.008-0.083-0.01-0.083-0.01
			c-0.062-0.005-0.083-0.006-0.083-0.006c-0.063-0.001-0.084-0.001-0.084-0.001c-0.063,0.002-0.085,0.003-0.085,0.003
			c-0.058,0.005-0.087,0.008-0.087,0.008c-0.059,0.008-0.088,0.013-0.088,0.013c-0.059,0.011-0.089,0.017-0.089,0.017
			c-0.06,0.014-0.09,0.022-0.09,0.022c-0.061,0.017-0.092,0.026-0.092,0.026c-1.175,0.4-2.595,1.577-3.632,2.234
			c-1.594,1.071-3.351,1.994-5.072,2.845c-6.554,3.181-14.963,6.758-20.8,11.057c-3.118,2.268-5.942,5.018-8.553,7.849l-6.924,7.719
			c-6.225,6.936-15.088,13.462-22.332,19.368c-3.275,2.709-6.58,5.572-9.434,8.716c-2.91,3.172-5.569,6.884-7.984,10.456
			c-4.975,7.578-10.519,15.245-16.459,22.073c-5.673,6.577-11.873,12.957-18.607,18.453c-5.509,4.483-11.486,8.557-17.863,11.7
			c-4.295,2.103-10.364,4.559-14.535,6.864c-3.61,1.944-7.112,4.315-10.426,6.729c-8.966,6.505-20.798,16.999-29.323,24.253
			c-2.291,1.951-4.957,4.087-7.365,5.895c-0.704,0.561-1.484,1.227-1.872,2.002c-0.029,0.06-0.043,0.091-0.043,0.091
			c-0.027,0.061-0.04,0.091-0.04,0.091c-0.024,0.061-0.036,0.092-0.036,0.092c-0.022,0.062-0.032,0.093-0.032,0.093
			c-0.019,0.063-0.028,0.094-0.028,0.094c-0.017,0.063-0.024,0.095-0.024,0.095c-0.015,0.07-0.022,0.105-0.022,0.105
			c-0.012,0.07-0.017,0.106-0.017,0.106c-0.009,0.071-0.013,0.107-0.013,0.107c-0.006,0.072-0.008,0.109-0.008,0.109
			c-0.033,0.974,0.362,1.814,0.805,2.638c0.773,1.371,1.793,2.66,2.774,3.889c1.769,2.159,3.687,4.293,5.774,6.15
			c0.933,0.792,2.041,1.767,3.224,2.079c0.069,0.016,0.092,0.02,0.092,0.02c0.068,0.013,0.091,0.017,0.091,0.017
			c0.068,0.01,0.09,0.013,0.09,0.013c0.068,0.008,0.09,0.01,0.09,0.01c0.067,0.005,0.09,0.007,0.09,0.007
			c0.067,0.003,0.089,0.003,0.089,0.003c0.067,0,0.089,0,0.089,0c0.067-0.002,0.089-0.004,0.089-0.004
			c0.067-0.005,0.089-0.007,0.089-0.007c0.585-0.063,1.04-0.277,1.529-0.531c0.59-0.316,1.181-0.715,1.732-1.097
			c1.472-1.045,3.676-2.68,5.209-3.577c1.715-1.027,3.596-1.934,5.42-2.754l11.867-5.136c8.022-3.705,16.071-7.894,23.414-12.814
			c3.89-2.637,9.428-6.643,13.456-8.928c2.261-1.306,4.726-2.45,7.135-3.461c5.035-2.088,11.452-4.407,16.018-7.259
			c2.796-1.71,5.495-3.794,8.027-5.877c3.697-3.108,9.974-8.502,13.763-11.273c15.379-11.549,32.646-20.867,49.768-29.548
			c3.89-1.938,7.974-3.892,12.123-5.198c2.279-0.712,4.648-1.271,7.044-1.324c1.325-0.027,2.667,0.115,3.935,0.507
			c1.486,0.457,2.858,1.242,4.162,2.076l3.885,2.572c3.144,2.043,6.654,3.515,10.204,4.694c4.927,1.63,10.16,2.785,15.266,3.708
			c11.696,2.021,23.761,3.264,35.602,1.905c4.504-0.537,8.988-1.633,13.295-3.044c6.166-2.019,13.769-5.311,19.961-7.213
			c5.511-1.726,11.263-3.075,17.069-2.99c0.891,0.015,1.813,0.063,2.697,0.183c0.598,0.083,1.206,0.194,1.74,0.416
			c0.061,0.027,0.091,0.042,0.091,0.042c0.058,0.029,0.087,0.044,0.087,0.044c0.056,0.031,0.083,0.046,0.083,0.046
			c0.053,0.032,0.079,0.049,0.079,0.049c0.051,0.034,0.076,0.052,0.076,0.052c0.072,0.055,0.096,0.074,0.096,0.074
			c0.068,0.059,0.09,0.079,0.09,0.079c0.064,0.063,0.084,0.085,0.084,0.085c0.06,0.068,0.079,0.092,0.079,0.092
			c0.056,0.073,0.074,0.098,0.074,0.098c0.035,0.052,0.053,0.079,0.053,0.079c0.034,0.055,0.05,0.083,0.05,0.083
			c0.416,0.755,0.524,1.646,0.473,2.45c-0.02,0.239-0.06,0.492-0.112,0.681c-0.147,0.599-0.426,1.782-0.557,2.382
			c-0.937,4.176-1.332,8.509-1.429,12.784c-0.139,5.562,0.098,11.464,0.464,17.023c0.543,9.415,2.479,20.99,3.227,30.396
			c0.427,5.759,0.263,11.831-0.001,17.602c-0.015,0.652-0.026,1.422,0.174,2.02c0.026,0.072,0.035,0.096,0.035,0.096
			c0.029,0.069,0.039,0.092,0.039,0.092c0.032,0.067,0.043,0.088,0.043,0.088c0.035,0.064,0.047,0.085,0.047,0.085
			c0.038,0.061,0.051,0.081,0.051,0.081c0.041,0.058,0.055,0.077,0.055,0.077c0.06,0.073,0.076,0.09,0.076,0.09
			c0.066,0.068,0.083,0.084,0.083,0.084c0.072,0.063,0.091,0.078,0.091,0.078c0.063,0.047,0.078,0.058,0.078,0.058
			c0.062,0.041,0.078,0.05,0.078,0.05c0.066,0.038,0.083,0.047,0.083,0.047c0.069,0.035,0.087,0.044,0.087,0.044
			c0.902,0.391,1.959,0.323,2.906,0.292c1.935-0.118,4.469-0.431,6.4-0.552c2.48-0.165,6.735-0.342,9.154-0.667
			c0.781-0.105,1.587-0.236,2.348-0.442c0.513-0.139,1.105-0.352,1.508-0.63c0.071-0.051,0.095-0.069,0.095-0.069
			c0.067-0.054,0.089-0.072,0.089-0.072c0.062-0.055,0.082-0.074,0.082-0.074c0.057-0.057,0.075-0.076,0.075-0.076
			c0.052-0.059,0.069-0.079,0.069-0.079c0.047-0.061,0.062-0.081,0.062-0.081c0.043-0.063,0.056-0.084,0.056-0.084
			c0.038-0.065,0.05-0.086,0.05-0.086c0.034-0.066,0.045-0.089,0.045-0.089c0.03-0.068,0.039-0.091,0.039-0.091
			c0.026-0.07,0.034-0.094,0.034-0.094c0.023-0.072,0.029-0.097,0.029-0.097c0.013-0.049,0.019-0.074,0.019-0.074
			c0.128-0.601,0.056-1.12,0.002-1.693c-0.121-1.019-0.24-2.181-0.308-3.198c-0.371-5.677-0.312-11.453,0.246-17.116
			c0.09-1.89,3.24-23.635,3.558-26.102c0,0,3.186-25.951,3.186-25.951c0.535-3.986,2.223-15.517,2.547-19.34
			c0.268-2.8,0.457-5.695,0.288-8.505c-0.189-3.091-0.809-6.266-2.511-8.903c-1.818-2.833-4.615-4.897-7.584-6.404
			c-6.589-3.331-14.125-4.233-21.386-4.934c-13.651-1.061-30.234-2.84-43.816-2.663c-2.323,0.052-4.7,0.223-6.984,0.661
			c-1.205,0.217-2.856,0.628-4.065,0.68c-0.637,0.031-1.277-0.041-1.881-0.193c-0.858-0.214-1.68-0.574-2.459-0.991
			c-2.946-1.631-6.601-4.707-9.358-6.728L430.216,404.366z"/>
	</g>
	<g id="POLYLINE_1373_">
		
			<path fill="none" stroke="#FF6B6B" stroke-width="2.75" stroke-linecap="round" stroke-linejoin="round" stroke-miterlimit="10" d="
			M498.259,539.277c-0.25,4.306-0.568,9.541-1.124,13.777c-0.182,1.415-0.456,2.88-0.804,4.263c-0.44,1.781-1.004,3.583-1.653,5.299
			c-0.441,1.181-0.997,2.365-1.359,3.573c-0.559,1.822-0.882,3.784-0.507,5.675c0.125,0.662,0.435,1.419,0.821,1.936
			c0.521,0.709,1.165,1.148,1.915,1.46c0.92,0.362,1.914,0.541,2.889,0.685c1.882,0.26,3.85,0.333,5.749,0.356
			c13.519-0.042,48.623,0.103,62.547-0.055c0.871-0.065,1.842-0.162,2.629-0.5c0.073-0.034,0.096-0.046,0.096-0.046
			c0.068-0.036,0.089-0.048,0.089-0.048c0.063-0.037,0.083-0.05,0.083-0.05c0.057-0.038,0.076-0.051,0.076-0.051
			c0.069-0.053,0.085-0.067,0.085-0.067c0.068-0.063,0.075-0.07,0.075-0.07c0.064-0.073,0.077-0.088,0.077-0.088
			c0.048-0.063,0.06-0.079,0.06-0.079c0.046-0.068,0.057-0.085,0.057-0.085c0.044-0.073,0.054-0.091,0.054-0.091
			c0.031-0.058,0.041-0.077,0.041-0.077c0.458-0.973,0.459-2.052,0.46-3.079c-0.025-1.062-0.106-2.267-0.569-3.211
			c-0.036-0.068-0.048-0.091-0.048-0.091c-0.037-0.065-0.05-0.086-0.05-0.086c-0.039-0.062-0.052-0.082-0.052-0.082
			c-0.04-0.059-0.054-0.078-0.054-0.078c-0.041-0.056-0.055-0.074-0.055-0.074c-0.057-0.07-0.072-0.087-0.072-0.087
			c-0.06-0.065-0.075-0.08-0.075-0.08c-0.062-0.059-0.078-0.074-0.078-0.074c-0.065-0.054-0.081-0.067-0.081-0.067
			c-0.067-0.049-0.084-0.061-0.084-0.061c-0.072-0.046-0.091-0.057-0.091-0.057c-0.058-0.033-0.079-0.044-0.079-0.044
			c-0.062-0.031-0.084-0.042-0.084-0.042c-0.493-0.226-1.016-0.312-1.498-0.377c-0.522-0.066-1.067-0.094-1.592-0.105
			c-0.913-0.024-1.864,0.049-2.776,0.014c-1.223-0.039-2.476-0.188-3.684-0.386c-5.01-0.868-9.963-2.423-14.407-4.919
			c-2.799-1.683-5.756-3.197-8.855-4.248c-1.581-0.545-3.267-0.962-4.819-1.588c-1.369-0.539-2.719-1.186-3.927-2.03
			c-0.651-0.455-1.256-0.991-1.823-1.546c-1.291-1.28-2.393-2.777-3.156-4.43c-0.507-1.163-0.841-2.413-1.132-3.645
			c-0.505-2.191-0.868-4.518-1.168-6.746"/>
	</g>
	<g id="POLYLINE_1348_">
		
			<path fill="none" stroke="#FF6B6B" stroke-width="2.75" stroke-linecap="round" stroke-linejoin="round" stroke-miterlimit="10" d="
			M176.858,534.059c-3.042,2.903-6.184,5.946-9.698,8.269c-2.015,1.281-4.285,2.662-6.381,3.786
			c-0.772,0.43-1.509,0.948-2.171,1.533c-0.615,0.543-1.183,1.159-1.678,1.812c-0.344,0.452-0.645,0.951-1.013,1.385
			c-1.032,1.243-2.289,2.31-3.559,3.302c-1.786,1.396-3.791,2.627-5.61,3.979c-2.495,1.839-4.902,3.895-7.035,6.148
			c-0.866,0.915-1.755,1.902-2.51,2.912c-0.495,0.665-1.026,1.458-1.295,2.219c-0.439,1.304-0.248,2.684,0.176,3.903
			c0.179,0.535,0.461,1.165,0.803,1.559c0.515,0.628,1.195,0.999,1.901,1.203c0.467,0.135,0.957,0.202,1.441,0.225
			c0.127,0.006,0.278,0.009,0.405,0.009c0,0,10.073,0,10.073,0s9.842,0,9.842,0s0.096-0.001,0.096-0.001
			c0.207-0.002,0.429-0.013,0.635-0.032c0.595-0.05,1.289-0.223,1.764-0.523c0.054-0.034,0.081-0.052,0.081-0.052
			c0.052-0.036,0.078-0.054,0.078-0.054c0.05-0.037,0.075-0.056,0.075-0.056c0.072-0.058,0.096-0.078,0.096-0.078
			c0.069-0.062,0.091-0.083,0.091-0.083c0.065-0.065,0.086-0.087,0.086-0.087c0.061-0.068,0.081-0.091,0.081-0.091
			c0.057-0.071,0.076-0.095,0.076-0.095c0.036-0.049,0.053-0.074,0.053-0.074c0.034-0.05,0.051-0.076,0.051-0.076
			c0.032-0.052,0.048-0.078,0.048-0.078c0.03-0.054,0.045-0.081,0.045-0.081c0.028-0.055,0.042-0.083,0.042-0.083
			c0.026-0.057,0.039-0.085,0.039-0.085c0.025-0.058,0.036-0.088,0.036-0.088c0.023-0.06,0.034-0.09,0.034-0.09
			c0.481-1.74,0.638-3.558,0.755-5.352c0.114-1.674,0.324-3.58,1.348-4.95c1.1-1.428,2.595-2.447,4.022-3.512
			c0.716-0.555,1.402-1.178,2.026-1.835c0.7-0.737,1.35-1.545,1.929-2.381c0.459-0.674,0.844-1.345,1.401-1.903
			c1.104-1.156,2.432-2.103,3.76-2.984c2.535-1.654,5.341-3.124,8.053-4.468"/>
	</g>
	<g id="POLYLINE_1347_">
		
			<path fill="none" stroke="#FF6B6B" stroke-width="2.75" stroke-linecap="round" stroke-linejoin="round" stroke-miterlimit="10" d="
			M379.471,364.332c2.112-1.284,13.725-8.383,15.714-9.684c1.618-1.054,3.263-2.214,4.761-3.427
			c1.013-0.818,2.022-1.732,2.931-2.663c1.109-1.13,2.964-3.236,4.083-4.358c1.057-1.053,2.208-2.055,3.543-2.739
			c2.319-1.208,5.062-1.166,7.572-0.678c2.328,0.457,4.585,1.307,6.719,2.333c2.803,1.357,5.45,3.069,7.835,5.071
			c5.698,4.771,9.895,11.092,13.31,17.631c2.519,4.858,4.708,9.972,6.386,15.182c0.99,3.162,1.877,6.438,2.145,9.75
			c0.093,1.252,0.072,2.523-0.099,3.768c-0.173,1.317-0.532,2.624-0.941,3.885c-1.552,4.371-2.884,9.63-4.738,13.877"/>
	</g>
	<g id="POLYLINE_1346_">
		
			<path fill="none" stroke="#FF6B6B" stroke-width="2.75" stroke-linecap="round" stroke-linejoin="round" stroke-miterlimit="10" d="
			M451.836,403.271l6.352-3.868c1.339-0.842,2.806-1.795,4.08-2.724c1.441-1.055,3.778-2.857,5.286-3.752
			c2.179-1.359,4.632-2.301,7.058-3.12l7.767-2.535c3.842-1.309,7.681-2.849,11.166-4.945c7.447-4.441,13.68-10.861,18.154-18.27
			c2.058-3.424,3.802-7.089,5.081-10.875c0.808-2.442,1.473-4.983,1.647-7.557c0.078-1.25,0.02-2.523-0.284-3.742
			c-0.249-1.012-0.675-1.983-1.241-2.857c-1.914-2.891-5.006-4.924-7.643-7.103c-2.004-1.621-3.871-3.475-5.217-5.688
			c-1.089-1.751-1.831-3.708-2.431-5.674c-1.333-4.275-2.14-9.58-3.655-13.797c-0.392-1.047-0.875-2.085-1.579-2.961
			c-0.633-0.8-1.425-1.433-2.267-1.987c-0.255-0.166-1.605-1.028-1.822-1.186"/>
	</g>
	<g id="POLYLINE_1345_">
		
			<path fill="none" stroke="#FF6B6B" stroke-width="2.75" stroke-linecap="round" stroke-linejoin="round" stroke-miterlimit="10" d="
			M406.333,344.845c0.159-0.946,0.314-2.166,0.615-3.067c0.263-0.82,0.61-1.497,1.058-2.191c0.547-0.844,1.201-1.651,1.857-2.413
			c2.152-2.476,6.569-6.788,8.899-9.186c1.663-1.699,11.303-12.054,13.147-14.023c2.369-2.44,4.841-4.997,7.491-7.127
			c1.551-1.244,3.288-2.306,5.217-2.837c1.567-0.447,3.229-0.614,4.851-0.718c2.888-0.17,5.986-0.116,8.88-0.024
			c5.739,0.13,16.831,1.177,22.589,1.216c1.541-0.009,3.115-0.101,4.635-0.365c1.302-0.228,2.6-0.581,3.811-1.115
			c0.889-0.391,1.845-0.955,2.465-1.683c0.054-0.066,0.081-0.099,0.081-0.099c0.051-0.067,0.076-0.1,0.076-0.1
			c0.048-0.067,0.071-0.101,0.071-0.101c0.044-0.068,0.066-0.103,0.066-0.103c0.041-0.069,0.06-0.104,0.06-0.104
			c0.037-0.07,0.055-0.105,0.055-0.105c0.034-0.071,0.05-0.106,0.05-0.106c0.03-0.071,0.044-0.107,0.044-0.107
			c0.026-0.072,0.039-0.109,0.039-0.109c0.238-0.745,0.146-1.459,0.05-2.202c-0.203-1.336-0.448-2.821-0.406-4.167
			c0.116-3.631,1.131-7.199,2.26-10.631c1.695-4.912,3.856-9.742,6.726-14.086c1.683-2.531,3.729-4.862,5.876-7.009
			c2.849-2.78,6.349-6.171,8.926-9.128c4.118-4.644,8.269-9.94,11.96-14.939c3.711-4.903,12.148-17.788,15.704-23.085
			c4.756-7.027,17.626-25.168,22.707-32.175c1.385-1.855,2.856-3.725,4.553-5.307c2.465-2.35,6.385-4.54,9.246-6.392
			c1.876-1.204,3.736-2.591,5.45-4.016c1.107-0.857,12.775-11.3,14.141-12.502c2.141-1.955,4.385-4.025,6.232-6.258
			c1.589-1.931,3.341-4.617,2.267-7.167c-0.033-0.071-0.044-0.094-0.044-0.094c-0.035-0.069-0.047-0.091-0.047-0.091
			c-0.037-0.066-0.049-0.087-0.049-0.087c-0.039-0.063-0.052-0.084-0.052-0.084c-0.04-0.06-0.054-0.08-0.054-0.08
			c-0.042-0.057-0.057-0.075-0.057-0.075c-0.059-0.071-0.074-0.088-0.074-0.088c-0.062-0.065-0.078-0.081-0.078-0.081
			c-0.065-0.059-0.081-0.073-0.081-0.073c-0.067-0.053-0.084-0.065-0.084-0.065c-0.07-0.046-0.079-0.051-0.079-0.051
			c-0.072-0.04-0.082-0.044-0.082-0.044c-0.065-0.029-0.075-0.033-0.075-0.033c-0.067-0.024-0.077-0.027-0.077-0.027
			c-0.069-0.018-0.079-0.021-0.079-0.021c-0.06-0.011-0.077-0.014-0.077-0.014c-0.067-0.007-0.084-0.008-0.084-0.008
			c-0.069-0.002-0.086-0.001-0.086-0.001c-0.07,0.004-0.088,0.005-0.088,0.005c-0.072,0.009-0.09,0.011-0.09,0.011
			c-0.073,0.014-0.092,0.018-0.092,0.018c-0.056,0.014-0.075,0.019-0.075,0.019c-0.057,0.016-0.076,0.022-0.076,0.022
			c-0.757,0.266-1.316,0.754-1.918,1.24c-1.588,1.356-3.328,3.068-5.054,4.236c-3.128,2.17-6.681,3.702-10.251,4.985
			c-2.526,0.892-6.027,1.944-8.353,3.242c-3.282,1.802-6.112,4.416-8.848,6.944c-6.092,5.853-21.75,20.882-27.714,26.449
			c-3.626,3.524-7.324,7.354-10.604,11.195c-4.837,5.592-11.872,15.02-16.551,20.821c-1.912,2.343-3.993,4.69-6.131,6.819
			c-4.469,4.435-17.088,15.887-21.526,20.268c-5.314,5.174-10.807,10.813-15.548,16.502c-5.227,6.155-11.196,14.446-16.324,20.703
			c-2.428,2.93-7.581,8.679-9.922,11.645c-2.932,3.649-6.135,8.06-8.842,11.891"/>
	</g>
	<g id="POLYLINE_1344_">
		
			<path fill="none" stroke="#FF6B6B" stroke-width="2.75" stroke-linecap="round" stroke-linejoin="round" stroke-miterlimit="10" d="
			M492.838,382.738c-1.947,10.074-2.583,20.491-2.226,30.737"/>
	</g>
	<g id="POLYLINE_1343_">
		
			<path fill="none" stroke="#FF6B6B" stroke-width="2.75" stroke-linecap="round" stroke-linejoin="round" stroke-miterlimit="10" d="
			M518.795,418.149c0.238-5.463,0.7-11.026,2.064-16.333c1.283-5.03,3.769-11.616,5.265-16.614c1.306-4.347,2.394-8.851,3.007-13.35
			c0.673-5.224,0.907-10.729-0.831-15.777c-1.791-5.166-5.758-9.187-9.894-12.597"/>
	</g>
	<g id="POLYLINE_1342_">
		
			<path fill="none" stroke="#FF6B6B" stroke-width="2.75" stroke-linecap="round" stroke-linejoin="round" stroke-miterlimit="10" d="
			M528.764,459.024c0.419,1.697,0.854,3.485,1.54,5.091c0.477,1.134,1.08,2.221,1.772,3.238c0.948,1.395,2.084,2.712,3.245,3.933
			c1.563,1.631,3.279,3.197,5.073,4.57c1.159,0.878,2.381,1.715,3.694,2.346c0.832,0.387,1.809,0.767,2.722,0.655
			c0.037-0.006,0.074-0.012,0.074-0.012c0.073-0.014,0.108-0.022,0.108-0.022c0.07-0.018,0.104-0.028,0.104-0.028
			c0.068-0.022,0.101-0.034,0.101-0.034c0.069-0.028,0.105-0.044,0.105-0.044c0.07-0.034,0.104-0.052,0.104-0.052
			c0.067-0.039,0.099-0.06,0.099-0.06c0.064-0.044,0.095-0.067,0.095-0.067c0.061-0.049,0.09-0.074,0.09-0.074
			c0.058-0.054,0.086-0.081,0.086-0.081c0.055-0.058,0.082-0.088,0.082-0.088c0.052-0.063,0.078-0.095,0.078-0.095
			c0.05-0.067,0.074-0.102,0.074-0.102c0.356-0.534,0.493-1.138,0.6-1.723c0.129-0.766,0.169-1.587,0.181-2.365
			c-0.016-5.218-0.708-10.854-0.258-16.055c0.661-8.238,3.948-16.115,8.625-22.871c2.539-3.685,5.575-7.048,8.914-10.024
			c2.52-2.273,5.484-4.744,7.589-7.381c1.414-1.756,2.566-3.742,3.332-5.865c0.816-2.249,1.286-4.635,1.581-7.005
			c0.395-3.222,0.462-6.558,0.355-9.802c-0.198-5.347-0.859-10.737-1.99-15.967c-0.757-3.551-2.034-7.905-1.839-11.534
			c0.081-1.784,0.505-3.551,0.992-5.263c0.875-3.024,2.183-6.684,2.684-9.78c0.426-2.397,0.434-4.862,0.188-7.279
			c-0.522-5.323-2.388-11.929-3.188-17.219c-0.923-5.803-1.019-12.739-1.215-18.636c-0.307-9.678-1.169-19.648-4.856-28.693
			c-1.051-2.489-2.352-4.934-4.197-6.929c-1.381-1.486-3.087-2.676-4.965-3.445c-2.145-0.881-4.503-1.251-6.815-1.081
			c-1.603,0.119-3.184,0.524-4.683,1.097"/>
	</g>
	<g id="POLYLINE_1341_">
		
			<path fill="none" stroke="#FF6B6B" stroke-width="2.75" stroke-linecap="round" stroke-linejoin="round" stroke-miterlimit="10" d="
			M538.682,312.819c-0.034,1.299-0.078,2.805,0.593,3.924c0.509,0.885,1.202,1.472,1.974,2.037c0.866,0.616,1.82,1.119,2.804,1.518
			c1.497,0.594,3.174,1.028,4.788,0.857c1.093-0.115,2.129-0.629,2.861-1.37c0.775-0.778,1.249-1.695,1.576-2.722
			c0.348-1.115,0.464-2.312,0.295-3.47c-0.184-1.334-0.81-2.628-1.688-3.576c-1.26-1.364-2.983-2.288-4.541-3.262
			c-0.302-0.19-0.717-0.462-0.965-0.684c-0.053-0.049-0.078-0.073-0.078-0.073c-0.069-0.071-0.079-0.082-0.079-0.082
			c-0.057-0.068-0.066-0.08-0.066-0.08c-0.045-0.066-0.052-0.077-0.052-0.077c-0.032-0.064-0.037-0.074-0.037-0.074
			c-0.021-0.072-0.023-0.082-0.023-0.082c-0.003-0.067-0.002-0.076-0.002-0.076c0.017-0.07,0.021-0.079,0.021-0.079
			c0.038-0.067,0.043-0.075,0.043-0.075c0.065-0.073,0.074-0.081,0.074-0.081c0.067-0.055,0.077-0.062,0.077-0.062
			c0.068-0.046,0.08-0.053,0.08-0.053c0.064-0.037,0.092-0.052,0.092-0.052c0.057-0.029,0.087-0.044,0.087-0.044
			c0.783-0.361,2.275-0.685,3.101-0.953c1.196-0.359,2.383-0.812,3.444-1.479c2.034-1.259,3.649-3.092,5.035-5.019
			c1.391-1.982,2.727-4.142,3.859-6.283c0.848-1.663,1.558-3.458,1.652-5.341c0.068-1.214-0.165-2.435-0.636-3.554
			c-1.168-2.736-3.229-4.992-5.367-7.014c-1.539-1.398-3.145-2.787-4.959-3.82c-2.244-1.236-4.833-1.667-7.342-2.02
			c-2.585-0.317-5.235-0.46-7.824-0.111c-1.431,0.189-2.82,0.652-4.11,1.295l-2.203,1.128c-1.94,0.997-4.313,1.301-6.386,1.922
			c-3.355,0.945-6.251,3.029-8.85,5.29c-1.754,1.542-3.437,3.255-4.946,5.039c-1.479,1.758-2.852,3.892-2.908,6.243
			c-0.07,2.412,1.089,4.661,2.388,6.623c1.315,1.94,2.92,3.693,4.682,5.235c1.744,1.514,3.673,2.857,5.78,3.814"/>
	</g>
	<g id="POLYLINE_1339_">
		
			<path fill="none" stroke="#FF6B6B" stroke-width="2.75" stroke-linecap="round" stroke-linejoin="round" stroke-miterlimit="10" d="
			M495.899,303.256c1.777-0.155,3.54-0.593,5.2-1.241c1.458-0.575,2.869-1.324,4.103-2.294c1.671-1.302,2.964-3.033,3.987-4.875"/>
	</g>
	<g id="POLYLINE_1338_">
		
			<path fill="none" stroke="#FF6B6B" stroke-width="2.75" stroke-linecap="round" stroke-linejoin="round" stroke-miterlimit="10" d="
			M515.002,336.727c-0.412-2.304-0.278-4.751,0.635-6.923c1.007-2.405,2.958-4.375,5.315-5.476c2.239-1.057,4.946-1.609,7.312-2.325
			c3.763-1.109,7.825-3.037,11.403-4.676"/>
	</g>
</g>
<g id="AG-OUTLINE">
	<g id="POLYLINE_800_">
		
			<path fill="none" stroke="#FF6B6B" stroke-width="3.5" stroke-linecap="round" stroke-linejoin="round" stroke-miterlimit="10" d="
			M448.693,412.281c1.971-0.383,4.021-0.585,6.026-0.658c10.878-0.348,24.95,1.053,35.893,1.852
			c-0.357-10.247,0.279-20.664,2.226-30.737c-3.281,1.888-6.881,3.314-10.459,4.533l-7.767,2.535
			c-2.427,0.82-4.878,1.761-7.058,3.12c-1.498,0.888-3.858,2.707-5.286,3.752c-1.272,0.927-2.744,1.884-4.08,2.724l-6.352,3.868
			C450.904,406.25,449.941,409.424,448.693,412.281z"/>
	</g>
	<g id="POLYLINE_801_">
		
			<path fill="none" stroke="#FF6B6B" stroke-width="3.5" stroke-linecap="round" stroke-linejoin="round" stroke-miterlimit="10" d="
			M438.814,307.313c2.72-3.846,5.907-8.237,8.842-11.891c2.318-2.938,7.503-8.726,9.922-11.645
			c5.133-6.263,11.095-14.545,16.324-20.703c4.738-5.686,10.237-11.332,15.548-16.502c4.443-4.386,17.056-15.832,21.526-20.268
			c2.135-2.126,4.225-4.482,6.131-6.819c7.334-9.157,15.352-20.297,23.644-28.53c6.505-6.428,27.378-26.379,34.015-32.47
			c1.369-1.186,2.821-2.37,4.331-3.37c1.857-1.253,3.942-2.164,6.053-2.896c2.932-0.997,6.599-2.228,9.366-3.569
			c2.392-1.134,4.715-2.496,6.745-4.205c0.964-0.798,2.453-2.206,3.42-2.999c0.481-0.388,1.038-0.817,1.602-1.034
			c0.059-0.021,0.078-0.028,0.078-0.028c0.058-0.018,0.077-0.024,0.077-0.024c0.057-0.016,0.076-0.02,0.076-0.02
			c0.056-0.013,0.074-0.017,0.074-0.017c0.073-0.013,0.091-0.015,0.091-0.015c0.072-0.008,0.089-0.009,0.089-0.009
			c0.07-0.003,0.087-0.003,0.087-0.003c0.068,0.003,0.085,0.004,0.085,0.004c0.067,0.008,0.077,0.01,0.077,0.01
			c0.07,0.014,0.08,0.017,0.08,0.017c0.068,0.02,0.078,0.023,0.078,0.023c0.067,0.025,0.076,0.029,0.076,0.029
			c0.065,0.031,0.074,0.035,0.074,0.035c0.072,0.041,0.081,0.047,0.081,0.047c0.07,0.047,0.087,0.06,0.087,0.06
			c0.067,0.054,0.083,0.068,0.083,0.068c0.064,0.06,0.08,0.076,0.08,0.076c0.061,0.066,0.076,0.084,0.076,0.084
			c0.058,0.072,0.073,0.091,0.073,0.091c0.042,0.058,0.055,0.078,0.055,0.078c0.04,0.061,0.053,0.082,0.053,0.082
			c0.038,0.064,0.05,0.086,0.05,0.086c0.036,0.067,0.048,0.089,0.048,0.089c1.211,2.636-0.581,5.313-2.2,7.307
			c-1.846,2.231-4.092,4.305-6.232,6.258c-1.388,1.217-12.982,11.606-14.141,12.502c-1.713,1.423-3.576,2.813-5.45,4.016
			c-2.888,1.865-6.779,4.045-9.246,6.392c-1.697,1.581-3.168,3.451-4.553,5.307c-5.105,7.041-17.928,25.115-22.707,32.175
			c-3.578,5.33-11.937,18.101-15.704,23.085c-4.028,5.448-8.494,11.135-13.048,16.148c-2.211,2.469-5.472,5.591-7.838,7.919
			c-2.147,2.148-4.193,4.477-5.876,7.009c-2.56,3.86-4.539,8.133-6.154,12.466c-1.369,3.826-2.616,7.879-2.824,11.958
			c-0.039,0.999,0.038,2.013,0.179,3.002c0.133,1.069,0.501,2.495,0.203,3.55c-0.022,0.073-0.034,0.11-0.034,0.11
			c-0.025,0.073-0.039,0.109-0.039,0.109c-0.099,0.17,0.02,0.175,0.177,0.304c0.333,0.222,0.835,0.541,1.174,0.757
			c0.766,0.487,1.578,1.056,2.199,1.709c1.777-0.155,3.54-0.593,5.2-1.241c1.458-0.575,2.869-1.324,4.103-2.294
			c1.671-1.302,2.964-3.033,3.987-4.875c-0.755-1.532-1.275-3.248-1.075-4.97c0.176-1.596,0.868-2.976,1.756-4.262
			c1.098-1.564,2.466-3.011,3.803-4.374c2.514-2.485,5.267-4.836,8.457-6.403c1.231-0.595,2.558-1.009,3.882-1.339
			c1.662-0.407,3.627-0.794,5.153-1.587l2.203-1.128c0.891-0.438,1.829-0.81,2.795-1.045c1.33-0.323,2.719-0.426,4.084-0.449
			c2.95-0.022,5.925,0.31,8.796,0.986c1.569-0.6,3.227-1.015,4.907-1.112c2.24-0.129,4.515,0.244,6.591,1.096
			c1.878,0.77,3.584,1.958,4.965,3.445c1.845,1.995,3.147,4.44,4.197,6.929c3.686,9.045,4.549,19.014,4.856,28.693
			c0.192,5.936,0.291,12.819,1.215,18.636c0.801,5.293,2.662,11.897,3.188,17.219c0.246,2.417,0.238,4.882-0.188,7.279
			c-0.498,3.089-1.807,6.762-2.684,9.78c-0.488,1.712-0.912,3.479-0.992,5.263c-0.197,3.618,1.091,8.003,1.839,11.534
			c1.131,5.23,1.793,10.621,1.99,15.967c0.107,3.243,0.041,6.58-0.355,9.802c-0.296,2.369-0.766,4.757-1.581,7.005
			c-0.766,2.122-1.918,4.11-3.332,5.865c-2.099,2.644-5.089,5.113-7.589,7.381c-3.212,2.862-6.149,6.085-8.622,9.607
			c-4.749,6.729-8.118,14.591-8.878,22.838c-0.51,5.259,0.165,10.92,0.222,16.186c-0.004,0.796-0.034,1.648-0.146,2.44
			c-0.094,0.651-0.257,1.36-0.591,1.895c-0.047,0.072-0.071,0.107-0.071,0.107c-0.05,0.067-0.075,0.1-0.075,0.1
			c-0.052,0.063-0.079,0.093-0.079,0.093c-0.055,0.058-0.083,0.086-0.083,0.086c-0.058,0.054-0.088,0.079-0.088,0.079
			c-0.061,0.049-0.092,0.072-0.092,0.072c-0.064,0.044-0.096,0.065-0.096,0.065c-0.067,0.039-0.101,0.057-0.101,0.057
			c-0.07,0.034-0.106,0.05-0.106,0.05c-0.069,0.028-0.102,0.04-0.102,0.04c-0.068,0.022-0.102,0.032-0.102,0.032
			c-0.07,0.018-0.106,0.026-0.106,0.026c-0.073,0.014-0.109,0.02-0.109,0.02c-0.037,0.006-0.075,0.01-0.075,0.01
			c-0.965,0.088-1.842-0.278-2.684-0.66c-1.313-0.631-2.535-1.468-3.694-2.346c-1.794-1.374-3.51-2.939-5.073-4.57
			c-1.161-1.222-2.298-2.538-3.245-3.933c-0.692-1.017-1.296-2.104-1.772-3.238c-0.685-1.605-1.123-3.398-1.54-5.091
			c-1.771,14.237-4.841,38.695-6.919,52.846c-0.288,2.397-0.525,4.997-0.638,7.408c-0.192,4.32-0.159,8.728,0.177,13.04
			c0.063,0.815,0.187,1.851,0.275,2.664c0.044,0.454,0.069,0.981-0.025,1.388c-0.012,0.05-0.018,0.075-0.018,0.075
			c-0.021,0.073-0.028,0.097-0.028,0.097c-0.024,0.071-0.033,0.095-0.033,0.095c-0.028,0.069-0.038,0.092-0.038,0.092
			c-0.032,0.067-0.043,0.089-0.043,0.089c-0.036,0.065-0.049,0.087-0.049,0.087c-0.04,0.064-0.055,0.084-0.055,0.084
			c-0.045,0.062-0.061,0.082-0.061,0.082c-0.05,0.06-0.067,0.079-0.067,0.079c-0.054,0.058-0.073,0.077-0.073,0.077
			c-0.059,0.056-0.08,0.075-0.08,0.075c-0.065,0.054-0.087,0.072-0.087,0.072c-0.063,0.048-0.08,0.06-0.08,0.06
			c-0.223,0.156-0.415,0.25-0.615,0.338c0.318,2.346,0.696,4.778,1.248,7.08c0.285,1.154,0.609,2.324,1.098,3.409
			c0.765,1.613,1.844,3.077,3.111,4.331c0.567,0.555,1.172,1.091,1.823,1.546c1.208,0.845,2.558,1.492,3.927,2.03
			c1.552,0.626,3.238,1.043,4.819,1.588c2.983,1.021,5.857,2.445,8.552,4.076c4.522,2.596,9.586,4.204,14.71,5.091
			c1.207,0.197,2.461,0.348,3.684,0.386c0.843,0.034,1.729-0.029,2.572-0.017c1.038,0.023,2.196,0.059,3.158,0.426
			c0.069,0.029,0.092,0.039,0.092,0.039c0.065,0.031,0.087,0.041,0.087,0.041c0.061,0.032,0.081,0.043,0.081,0.043
			c0.057,0.033,0.076,0.044,0.076,0.044c0.071,0.046,0.088,0.058,0.088,0.058c0.067,0.05,0.083,0.063,0.083,0.063
			c0.064,0.055,0.08,0.07,0.08,0.07c0.062,0.06,0.077,0.076,0.077,0.076c0.059,0.066,0.074,0.083,0.074,0.083
			c0.057,0.071,0.071,0.089,0.071,0.089c0.041,0.057,0.055,0.076,0.055,0.076c0.04,0.06,0.053,0.08,0.053,0.08
			c0.038,0.063,0.051,0.084,0.051,0.084c0.536,1.005,0.59,2.087,0.638,3.172c0.018,1.027,0.002,2.19-0.397,3.13
			c-0.029,0.063-0.039,0.083-0.039,0.083c-0.03,0.06-0.04,0.079-0.04,0.079c-0.032,0.057-0.042,0.075-0.042,0.075
			c-0.044,0.072-0.055,0.089-0.055,0.089c-0.046,0.067-0.058,0.083-0.058,0.083c-0.048,0.062-0.061,0.077-0.061,0.077
			c-0.066,0.072-0.073,0.079-0.073,0.079c-0.069,0.062-0.086,0.076-0.086,0.076c-0.071,0.053-0.089,0.066-0.089,0.066
			c-0.059,0.038-0.079,0.051-0.079,0.051c-0.064,0.037-0.086,0.049-0.086,0.049c-0.872,0.425-1.84,0.488-2.771,0.569
			c-13.072,0.157-48.98,0.013-62.547,0.055c-1.986-0.025-4.036-0.101-6.002-0.393c-0.918-0.146-1.854-0.325-2.717-0.681
			c-0.771-0.317-1.478-0.886-1.904-1.524c-0.408-0.601-0.601-1.159-0.752-1.838c-0.375-1.891-0.053-3.853,0.507-5.675
			c0.363-1.208,0.918-2.393,1.359-3.573c0.649-1.715,1.213-3.519,1.653-5.299c0.348-1.381,0.621-2.849,0.804-4.263
			c0.555-4.225,0.871-9.496,1.124-13.777c-0.057-0.045-0.075-0.061-0.075-0.061c-0.07-0.065-0.086-0.082-0.086-0.082
			c-0.064-0.07-0.079-0.088-0.079-0.088c-0.044-0.056-0.058-0.075-0.058-0.075c-0.04-0.059-0.053-0.079-0.053-0.079
			c-0.037-0.062-0.049-0.083-0.049-0.083c-0.034-0.064-0.045-0.086-0.045-0.086c-0.031-0.067-0.041-0.09-0.041-0.09
			c-0.028-0.07-0.037-0.094-0.037-0.094c-0.236-0.709-0.199-1.363-0.191-2.068c0.264-5.784,0.428-11.838,0.001-17.602
			c-0.59-7.871-2.312-18.622-2.928-26.497c-0.511-6.252-0.865-12.914-0.795-19.177c0.047-4.854,0.391-9.787,1.461-14.529
			c0.153-0.828,0.628-2.394,0.676-3.165c0.035-0.803-0.092-1.583-0.432-2.261c-0.032-0.059-0.048-0.087-0.048-0.087
			c-0.033-0.056-0.05-0.083-0.05-0.083c-0.035-0.053-0.053-0.079-0.053-0.079c-0.037-0.05-0.055-0.074-0.055-0.074
			c-0.058-0.071-0.078-0.093-0.078-0.093c-0.062-0.066-0.083-0.087-0.083-0.087c-0.066-0.061-0.088-0.081-0.088-0.081
			c-0.07-0.057-0.094-0.075-0.094-0.075c-0.049-0.035-0.075-0.053-0.075-0.053c-0.052-0.034-0.078-0.05-0.078-0.05
			c-0.054-0.032-0.082-0.047-0.082-0.047c-0.057-0.03-0.086-0.045-0.086-0.045c-0.059-0.029-0.09-0.042-0.09-0.042
			c-0.592-0.249-1.153-0.339-1.771-0.43c-0.885-0.119-1.805-0.168-2.697-0.183c-5.807-0.086-11.558,1.263-17.069,2.99
			c-6.773,2.084-14.699,5.615-21.479,7.694c-3.825,1.181-7.8,2.085-11.777,2.563c-11.84,1.359-23.906,0.116-35.602-1.905
			c-5.105-0.923-10.338-2.077-15.266-3.708c-3.548-1.178-7.06-2.651-10.204-4.694l-3.885-2.572
			c-1.305-0.834-2.676-1.619-4.162-2.076c-1.269-0.392-2.611-0.534-3.935-0.507c-2.396,0.053-4.765,0.612-7.044,1.324
			c-4.148,1.306-8.233,3.26-12.123,5.198c-17.124,8.682-34.387,17.998-49.768,29.548c-6.827,4.957-14.106,12.248-21.194,16.779
			c-4.764,3.091-11.375,5.453-16.613,7.629c-2.41,1.012-4.873,2.155-7.135,3.461c-4.009,2.272-9.595,6.31-13.456,8.928
			c-7.342,4.919-15.394,9.11-23.414,12.814l-11.867,5.136c-1.825,0.821-3.704,1.727-5.42,2.754c-1.525,0.891-3.75,2.541-5.209,3.577
			c-0.943,0.632-2.04,1.446-3.171,1.618c-0.067,0.008-0.089,0.01-0.089,0.01c-0.067,0.005-0.089,0.007-0.089,0.007
			c-0.067,0.003-0.089,0.004-0.089,0.004c-0.067,0-0.089,0-0.089,0c-0.067-0.002-0.089-0.003-0.089-0.003
			c-0.067-0.005-0.09-0.007-0.09-0.007c-0.067-0.007-0.09-0.01-0.09-0.01c-0.068-0.01-0.09-0.013-0.09-0.013
			c-0.886-0.168-1.55-0.658-2.241-1.159c-2.714,1.345-5.517,2.813-8.053,4.468c-1.328,0.881-2.655,1.828-3.76,2.984
			c-0.579,0.583-0.955,1.254-1.401,1.903c-0.535,0.772-1.132,1.523-1.771,2.212c-0.617,0.666-1.296,1.299-2.007,1.864
			c-1.402,1.069-2.918,2.076-4.044,3.452c-0.577,0.693-0.881,1.446-1.096,2.27c-0.212,0.819-0.322,1.671-0.384,2.514
			c-0.104,1.815-0.27,3.664-0.695,5.435c-0.031,0.128-0.062,0.221-0.084,0.283c-0.022,0.06-0.034,0.09-0.034,0.09
			c-0.024,0.059-0.036,0.088-0.036,0.088c-0.026,0.057-0.039,0.085-0.039,0.085c-0.028,0.056-0.042,0.083-0.042,0.083
			c-0.03,0.054-0.045,0.081-0.045,0.081c-0.031,0.053-0.048,0.078-0.048,0.078c-0.033,0.051-0.051,0.076-0.051,0.076
			c-0.035,0.049-0.053,0.074-0.053,0.074c-0.056,0.072-0.076,0.095-0.076,0.095c-0.06,0.068-0.081,0.091-0.081,0.091
			c-0.064,0.065-0.086,0.087-0.086,0.087c-0.068,0.062-0.091,0.083-0.091,0.083c-0.071,0.059-0.096,0.078-0.096,0.078
			c-0.05,0.038-0.075,0.056-0.075,0.056c-0.052,0.036-0.078,0.054-0.078,0.054c-0.054,0.035-0.081,0.052-0.081,0.052
			c-0.583,0.348-1.132,0.453-1.764,0.523c-0.207,0.019-0.427,0.03-0.635,0.032c0,0-0.096,0.001-0.096,0.001h-9.842
			c0,0-10.073,0-10.073,0c-0.161-0.001-0.343-0.004-0.504-0.015c-0.504-0.029-1.024-0.113-1.503-0.269
			c-0.825-0.256-1.537-0.795-1.966-1.459c-0.386-0.589-0.565-1.202-0.757-1.832c-0.282-1.015-0.336-2.062-0.088-3.023
			c0.154-0.589,0.405-1.032,0.689-1.506c0.894-1.425,2.058-2.705,3.207-3.928c2.677-2.829,5.754-5.317,8.962-7.517
			c2.416-1.631,4.885-3.32,6.866-5.477c0.428-0.465,0.806-0.984,1.158-1.508c0.33-0.463,0.703-0.92,1.092-1.334
			c0.909-0.969,1.986-1.788,3.156-2.416c1.448-0.781,3.112-1.763,4.517-2.629c4.221-2.473,7.883-5.96,11.392-9.334
			c-0.032-0.225-0.037-0.417-0.029-0.58c0.004-0.062,0.007-0.093,0.007-0.093c0.006-0.062,0.01-0.092,0.01-0.092
			c0.008-0.061,0.013-0.091,0.013-0.091c0.011-0.06,0.017-0.09,0.017-0.09c0.013-0.06,0.021-0.091,0.021-0.091
			c0.017-0.063,0.026-0.095,0.026-0.095c0.019-0.063,0.029-0.094,0.029-0.094c0.022-0.062,0.033-0.093,0.033-0.093
			c0.024-0.061,0.037-0.092,0.037-0.092c0.027-0.061,0.041-0.091,0.041-0.091c0.447-0.9,1.177-1.468,1.901-2.062
			c2.418-1.815,5.065-3.936,7.365-5.895c8.595-7.317,20.326-17.719,29.323-24.253c3.317-2.417,6.814-4.784,10.426-6.729
			c4.16-2.298,10.247-4.764,14.535-6.864c6.377-3.143,12.355-7.217,17.863-11.7c6.734-5.496,12.935-11.877,18.607-18.453
			c5.936-6.822,11.491-14.505,16.458-22.073c2.407-3.565,5.074-7.283,7.984-10.456c2.852-3.142,6.167-6.014,9.434-8.716
			c7.264-5.924,16.09-12.418,22.332-19.368l6.924-7.719c2.814-3.053,5.866-5.993,9.28-8.369c5.602-3.968,13.86-7.528,20.073-10.537
			c1.721-0.851,3.477-1.774,5.072-2.845c0.988-0.63,2.511-1.856,3.601-2.225c0.062-0.019,0.092-0.027,0.092-0.027
			c0.061-0.016,0.091-0.023,0.091-0.023c0.06-0.013,0.09-0.019,0.09-0.019c0.059-0.01,0.089-0.014,0.089-0.014
			c0.058-0.007,0.087-0.01,0.087-0.01c0.053-0.004,0.077-0.005,0.077-0.005c0.072-0.001,0.096-0.001,0.096-0.001
			c0.071,0.003,0.095,0.005,0.095,0.005c0.071,0.008,0.094,0.011,0.094,0.011c0.07,0.012,0.094,0.017,0.094,0.017
			c0.07,0.017,0.093,0.023,0.093,0.023c0.07,0.021,0.093,0.029,0.093,0.029c0.07,0.025,0.093,0.035,0.093,0.035
			c0.368-0.062,13.261-8.137,13.978-8.529c1.457-0.909,3.039-1.943,4.429-2.948c2.092-1.499,4.083-3.198,5.827-5.093
			c0.385-0.418,2.324-2.536,2.673-2.897c0.159-0.946,0.314-2.166,0.615-3.067c0.263-0.82,0.61-1.497,1.058-2.191
			c0.547-0.844,1.201-1.651,1.857-2.413c2.152-2.476,6.569-6.788,8.899-9.186c1.663-1.699,11.303-12.054,13.147-14.023
			C434.089,311.709,436.413,309.33,438.814,307.313z"/>
	</g>
</g>
</svg>
